# Blender v2.83.1 OBJ File: 'Chair.blend'
# www.blender.org
mtllib Chair.mtl
o Chair_Cube
v 1.924291 3.338358 -1.000000
v 1.000000 2.056278 -1.000000
v 1.924291 3.338358 1.000000
v 1.000000 2.056278 1.000000
v 0.412065 3.419591 -1.000000
v 0.154734 2.056278 -1.000000
v 0.412065 3.419591 1.000000
v 0.154734 2.056278 1.000000
v 0.606144 0.668805 -1.000000
v 0.606144 0.668805 1.000000
v 1.000000 0.668805 -1.000000
v 1.000000 0.668805 1.000000
v 2.240777 1.331113 1.000000
v 2.240777 1.331113 -1.000000
v 6.435847 0.668805 1.000000
v 6.435847 0.668805 -1.000000
v 1.488560 3.872456 1.000000
v 0.033129 3.771888 1.000000
v 1.488560 3.872456 -1.000000
v 0.033129 3.771888 -1.000000
v 3.325850 3.419547 -0.324294
v 3.325850 3.419547 0.324294
v 3.325850 4.015315 -1.203935
v 3.325850 4.015315 1.203935
v 3.742075 3.876320 -0.269362
v 3.742075 3.876320 0.269362
v 4.448671 5.978258 -0.780058
v 4.448671 5.978258 0.780058
v 4.583574 8.603395 -1.415767
v 4.583574 8.603395 1.415767
v 4.941432 7.596623 -0.780058
v 4.941432 7.596623 0.780058
v 3.512457 3.268855 -0.324294
v 3.512457 3.268855 0.324294
v 3.928681 3.725628 -0.269362
v 3.928681 3.725628 0.269362
v 3.759003 3.397710 -0.162129
v 3.759003 3.397710 0.162129
v 4.302217 4.065621 -0.126038
v 4.302217 4.065621 0.126038
vt 0.625000 0.500000
vt 0.625000 0.250000
vt 0.625000 0.250000
vt 0.625000 0.500000
vt 0.375000 0.750000
vt 0.625000 0.750000
vt 0.625000 1.000000
vt 0.375000 1.000000
vt 0.375000 0.000000
vt 0.625000 0.000000
vt 0.375000 0.250000
vt 0.375000 0.500000
vt 0.375000 0.500000
vt 0.375000 0.250000
vt 0.125000 0.500000
vt 0.375000 0.750000
vt 0.125000 0.750000
vt 0.375000 1.000000
vt 0.375000 0.000000
vt 0.375000 0.750000
vt 0.375000 0.750000
vt 0.375000 0.500000
vt 0.375000 0.500000
vt 0.875000 0.500000
vt 0.875000 0.750000
vt 0.625000 0.750000
vt 0.625000 1.000000
vt 0.625000 0.000000
vt 0.625000 0.750000
vt 0.625000 0.750000
vt 0.625000 0.750000
vt 0.625000 0.750000
vt 0.625000 0.500000
vt 0.625000 0.500000
vt 0.625000 0.500000
vt 0.625000 0.500000
vt 0.625000 0.500000
vt 0.625000 0.750000
vt 0.625000 0.750000
vt 0.625000 0.750000
vt 0.625000 0.500000
vt 0.625000 0.750000
vt 0.625000 0.500000
vt 0.625000 0.500000
vt 0.625000 0.500000
vt 0.625000 0.500000
vt 0.625000 0.750000
vt 0.625000 0.750000
vn 0.0000 0.0000 -1.0000
vn 0.0000 0.0000 1.0000
vn -0.9826 0.1855 0.0000
vn 0.8112 -0.5848 0.0000
vn 0.0000 -1.0000 0.0000
vn -0.9509 -0.3094 0.0000
vn 0.1559 0.9878 0.0000
vn 0.5046 0.8634 0.0000
vn -0.0689 0.9976 0.0000
vn -0.6809 -0.7324 0.0000
vn 0.1570 -0.5683 0.8077
vn 0.8010 -0.4264 0.4202
vn 0.1570 -0.5683 -0.8077
vn 0.0578 -0.9983 0.0000
vn -0.0775 0.9970 0.0000
vn 0.9479 -0.3186 0.0000
vn 0.9566 -0.2913 0.0000
vn 0.8010 -0.4264 -0.4202
vn 0.0557 0.0690 0.9961
vn 0.9422 0.3349 0.0000
vn 0.6549 -0.2095 -0.7261
vn -0.9644 0.2644 0.0000
vn 0.6549 -0.2095 0.7261
vn 0.6600 -0.5191 -0.5430
vn 0.6283 0.7780 0.0000
vn 0.0557 0.0690 -0.9961
vn -0.6283 -0.7780 0.0000
vn 0.7758 -0.6310 0.0000
vn -0.6731 0.7395 0.0000
vn 0.6600 -0.5191 0.5430
vn 0.4632 -0.8863 0.0000
usemtl Material
s off
f 1/1/1 5/2/1 20/3/1 19/4/1
f 4/5/2 3/6/2 7/7/2 8/8/2
f 8/9/3 7/10/3 5/2/3 6/11/3
f 6/11/1 2/12/1 11/13/1 9/14/1
f 2/12/4 1/1/4 3/6/4 4/5/4
f 6/11/1 5/2/1 1/1/1 2/12/1
f 9/15/5 11/13/5 12/16/5 10/17/5
f 4/5/2 8/8/2 10/18/2 12/16/2
f 8/9/6 6/11/6 9/14/6 10/19/6
f 4/5/2 12/16/2 15/20/2 13/21/2
f 14/22/7 13/21/7 15/20/7 16/23/7
f 12/16/5 11/13/5 16/23/5 15/20/5
f 2/12/8 4/5/8 13/21/8 14/22/8
f 11/13/1 2/12/1 14/22/1 16/23/1
f 19/4/9 20/24/9 18/25/9 17/26/9
f 7/7/2 3/6/2 17/26/2 18/27/2
f 5/2/10 7/10/10 18/28/10 20/3/10
f 17/26/11 3/6/11 22/29/11 24/30/11
f 24/30/12 22/29/12 26/31/12 28/32/12
f 1/1/13 19/4/13 23/33/13 21/34/13
f 3/6/14 1/1/14 21/34/14 22/29/14
f 19/4/15 17/26/15 24/30/15 23/33/15
f 26/31/16 25/35/16 27/36/16 28/32/16
f 28/32/17 27/36/17 31/37/17 32/38/17
f 21/34/18 23/33/18 27/36/18 25/35/18
f 26/31/19 22/29/19 34/39/19 36/40/19
f 29/41/20 30/42/20 32/38/20 31/37/20
f 27/36/21 23/33/21 29/41/21 31/37/21
f 23/33/22 24/30/22 30/42/22 29/41/22
f 24/30/23 28/32/23 32/38/23 30/42/23
f 33/43/24 35/44/24 39/45/24 37/46/24
f 25/35/25 26/31/25 36/40/25 35/44/25
f 21/34/26 25/35/26 35/44/26 33/43/26
f 22/29/27 21/34/27 33/43/27 34/39/27
f 38/47/28 37/46/28 39/45/28 40/48/28
f 35/44/29 36/40/29 40/48/29 39/45/29
f 36/40/30 34/39/30 38/47/30 40/48/30
f 34/39/31 33/43/31 37/46/31 38/47/31
