# Blender v2.83.1 OBJ File: 'Bureau.blend'
# www.blender.org
mtllib Bureau.mtl
o Bureau_Cube
v -0.884465 1.591929 -2.599077
v -0.884465 1.578149 -2.282810
v -1.000000 1.591929 1.946234
v -1.000000 1.552145 1.946234
v 0.884465 1.591929 -2.599077
v 0.884465 1.578149 -2.282810
v 1.000000 1.591929 1.946234
v 1.000000 1.552145 1.946234
v 1.000000 1.502929 0.215314
v 1.000000 1.502929 1.946234
v -1.000000 1.502929 0.215314
v -1.000000 1.502929 1.946234
v 1.000000 1.471304 0.402830
v 1.000000 1.471304 1.186193
v -1.000000 1.471304 0.402830
v -1.000000 1.471304 1.186193
v 0.121020 0.137980 0.585512
v 0.121020 0.137980 0.817318
v -0.121020 0.137980 0.585512
v -0.121020 0.137980 0.817318
v 0.873168 -0.040549 0.577052
v -0.873168 -0.040549 0.577052
v -0.023946 0.081727 0.032151
v 0.023946 0.081727 0.032151
v -0.172771 0.019324 0.023691
v 0.172771 0.019324 0.023691
v -0.021818 0.068997 -1.973641
v 0.021818 0.068997 -1.973641
v -0.157420 -0.022299 -2.398748
v 0.157420 -0.022299 -2.398748
v 0.051903 -0.040549 1.741978
v 0.035488 -0.001355 1.727528
v -0.035488 -0.001355 1.727528
v -0.051903 -0.040549 1.741978
vt 0.625000 0.500000
vt 0.875000 0.500000
vt 0.875000 0.750000
vt 0.625000 0.750000
vt 0.375000 0.750000
vt 0.625000 1.000000
vt 0.375000 1.000000
vt 0.375000 0.000000
vt 0.625000 0.000000
vt 0.625000 0.250000
vt 0.375000 0.250000
vt 0.375000 0.250000
vt 0.375000 0.000000
vt 0.375000 0.500000
vt 0.375000 0.750000
vt 0.375000 1.000000
vt 0.375000 1.000000
vt 0.375000 0.750000
vt 0.375000 0.500000
vt 0.375000 1.000000
vt 0.375000 0.750000
vt 0.375000 0.250000
vt 0.375000 0.000000
vt 0.375000 0.500000
vt 0.375000 0.250000
vt 0.375000 0.000000
vt 0.375000 0.500000
vt 0.375000 1.000000
vt 0.375000 0.750000
vt 0.375000 0.250000
vt 0.375000 0.250000
vt 0.375000 0.250000
vt 0.375000 0.696311
vt 0.375000 0.500000
vt 0.125000 0.500000
vt 0.125000 0.696311
vt 0.375000 0.500000
vt 0.375000 0.500000
vt 0.375000 0.250000
vt 0.375000 0.500000
vt 0.125000 0.500000
vt 0.375000 0.500000
vt 0.375000 0.250000
vt 0.125000 0.500000
vt 0.350402 0.750000
vt 0.149598 0.750000
vt 0.375000 0.053689
vt 0.375000 0.000000
vn 0.0000 -1.0000 0.0000
vn 0.0000 0.0000 -1.0000
vn -0.9874 0.1563 0.0265
vn -0.8608 -0.5088 0.0145
vn 0.9874 0.1563 0.0265
vn 0.0000 0.9991 0.0435
vn 0.0000 0.9991 -0.0416
vn 0.8608 -0.5088 0.0145
vn 0.0000 0.9995 0.0301
vn 0.0000 0.2666 -0.9638
vn -1.0000 0.0000 0.0000
vn 1.0000 0.0000 0.0000
vn 0.0000 0.9861 0.1663
vn -0.8349 0.5504 0.0000
vn 0.8349 0.5504 0.0000
vn 0.0000 0.1357 0.9907
vn 0.0000 -0.9885 -0.1513
vn -0.2511 -0.9515 0.1778
vn 0.3053 -0.9380 -0.1643
vn 0.0000 1.0000 0.0000
vn 0.0000 -1.0000 0.0063
vn 0.0000 -0.9949 0.1011
vn 0.2511 -0.9515 0.1778
vn 0.0000 0.9942 0.1076
vn 0.0000 -0.9777 0.2100
vn -0.4603 -0.8877 0.0127
vn 0.0000 0.9999 -0.0172
vn 0.4603 -0.8877 0.0127
vn 0.0000 -0.3459 -0.9383
vn -0.3053 -0.9380 -0.1643
usemtl Material
s off
f 1/1/1 5/2/1 7/3/1 3/4/1
f 4/5/2 3/4/2 7/6/2 8/7/2
f 8/8/3 7/9/3 5/10/3 6/11/3
f 8/8/4 6/11/4 9/12/4 10/13/4
f 2/14/5 1/1/5 3/4/5 4/5/5
f 6/11/6 5/10/6 1/1/6 2/14/6
f 12/15/7 10/16/7 14/17/7 16/18/7
f 2/14/8 4/5/8 12/15/8 11/19/8
f 6/11/9 2/14/9 11/19/9 9/12/9
f 4/5/2 8/7/2 10/16/2 12/15/2
f 16/18/10 14/17/10 18/20/10 20/21/10
f 10/13/11 9/12/11 13/22/11 14/23/11
f 11/19/12 12/15/12 16/18/12 15/24/12
f 9/12/13 11/19/13 15/24/13 13/22/13
f 14/23/14 13/22/14 17/25/14 18/26/14
f 15/24/15 16/18/15 20/21/15 19/27/15
f 13/22/16 15/24/16 19/27/16 17/25/16
f 20/21/17 18/20/17 32/28/17 33/29/17
f 21/30/18 17/25/18 24/31/18 26/32/18
f 19/27/19 20/21/19 33/29/19 34/33/19 22/34/19
f 21/35/20 22/34/20 34/33/20 31/36/20
f 24/31/21 23/37/21 27/38/21 28/39/21
f 17/25/22 19/27/22 23/37/22 24/31/22
f 19/27/23 22/34/23 25/40/23 23/37/23
f 22/34/24 21/35/24 26/41/24 25/40/24
f 28/39/25 27/38/25 29/42/25 30/43/25
f 26/32/26 24/31/26 28/39/26 30/43/26
f 25/40/27 26/41/27 30/44/27 29/42/27
f 23/37/28 25/40/28 29/42/28 27/38/28
f 31/36/29 34/33/29 33/45/29 32/46/29
f 18/26/30 17/25/30 21/30/30 31/47/30 32/48/30
