# Blender v2.83.1 OBJ File: 'Bureau.blend'
# www.blender.org
mtllib DeskTextured.mtl
o Bureau_Cube
v -0.884465 1.591929 -2.599077
v -0.884465 1.578149 -2.282810
v -1.000000 1.591929 1.946234
v -1.000000 1.552145 1.946234
v 0.884465 1.591929 -2.599077
v 0.884465 1.578149 -2.282810
v 1.000000 1.591929 1.946234
v 1.000000 1.552145 1.946234
v 1.000000 1.502929 0.215314
v 1.000000 1.502929 1.946234
v -1.000000 1.502929 0.215314
v -1.000000 1.502929 1.946234
v 1.000000 1.471304 0.402830
v 1.000000 1.471304 1.186193
v -1.000000 1.471304 0.402830
v -1.000000 1.471304 1.186193
v 0.121020 0.137980 0.585512
v 0.121020 0.137980 0.817318
v -0.121020 0.137980 0.585512
v -0.121020 0.137980 0.817318
v 0.873168 -0.040549 0.577052
v -0.873168 -0.040549 0.577052
v -0.023946 0.081727 0.032151
v 0.023946 0.081727 0.032151
v -0.172771 0.019324 0.023691
v 0.172771 0.019324 0.023691
v -0.021818 0.068997 -1.973641
v 0.021818 0.068997 -1.973641
v -0.157420 -0.022299 -2.398748
v 0.157420 -0.022299 -2.398748
v 0.051903 -0.040549 1.741978
v 0.035488 -0.001355 1.727528
v -0.035488 -0.001355 1.727528
v -0.051903 -0.040549 1.741978
vt 0.000390 0.285351
vt 0.000390 0.017861
vt 0.687712 0.000390
vt 0.687712 0.302822
vt 0.302837 0.843980
vt 0.302837 0.849997
vt 0.000390 0.849995
vt 0.000390 0.843980
vt 0.999610 0.722867
vt 0.992804 0.722802
vt 0.992804 0.303602
vt 0.999610 0.332890
vt 0.983507 0.303719
vt 0.983507 0.943448
vt 0.971974 0.565300
vt 0.976064 0.303602
vt 0.984287 0.456916
vt 0.992023 0.303602
vt 0.992023 0.779963
vt 0.986384 0.780035
vt 0.000390 0.826954
vt 0.000390 0.779084
vt 0.267880 0.779084
vt 0.267880 0.826954
vt 0.793355 0.606034
vt 0.793355 0.303602
vt 0.908385 0.303602
vt 0.908385 0.606034
vt 0.971193 0.303602
vt 0.971193 0.943343
vt 0.963752 0.943459
vt 0.959660 0.681757
vt 0.000390 0.588563
vt 0.000390 0.321073
vt 0.378317 0.303602
vt 0.378317 0.606034
vt 0.302818 0.835177
vt 0.000390 0.835176
vt 0.000390 0.827734
vt 0.302818 0.827734
vt 0.588291 0.303602
vt 0.588291 0.606033
vt 0.379098 0.473118
vt 0.379098 0.436518
vt 0.574658 0.606814
vt 0.574658 0.868550
vt 0.569876 0.840196
vt 0.569876 0.721742
vt 0.588291 0.606814
vt 0.588291 0.868549
vt 0.583508 0.753621
vt 0.583508 0.635169
vt 0.894185 0.000390
vt 0.894185 0.302821
vt 0.865429 0.302821
vt 0.865429 0.000390
vt 0.241879 0.606814
vt 0.241879 0.725271
vt 0.000390 0.697646
vt 0.000390 0.662594
vt 0.484149 0.606814
vt 0.484149 0.725271
vt 0.242660 0.669491
vt 0.242660 0.634439
vt 0.792575 0.303602
vt 0.792575 0.606034
vt 0.589071 0.473118
vt 0.589071 0.436518
vt 0.827735 0.265244
vt 0.827735 0.301845
vt 0.688493 0.288911
vt 0.688493 0.278178
vt 0.453790 0.726052
vt 0.453790 0.842955
vt 0.369215 0.854647
vt 0.367536 0.830269
vt 0.793355 0.756906
vt 0.812858 0.727780
vt 0.883021 0.606814
vt 0.889775 0.607479
vt 0.889775 0.823009
vt 0.864648 0.000390
vt 0.864648 0.264463
vt 0.688493 0.140276
vt 0.688493 0.124578
vt 0.000390 0.843200
vt 0.000390 0.835958
vt 0.303708 0.836279
vt 0.303708 0.842877
vt 0.352769 0.779084
vt 0.352769 0.815684
vt 0.268661 0.801005
vt 0.268661 0.793763
vt 0.695374 0.618506
vt 0.695374 0.735410
vt 0.609120 0.631193
vt 0.610799 0.606814
vt 0.569095 0.606814
vt 0.569095 0.870887
vt 0.484930 0.764976
vt 0.484930 0.712725
vt 0.609120 0.763294
vt 0.609120 0.756696
vt 0.674868 0.736190
vt 0.674868 0.783799
vt 0.958879 0.669975
vt 0.934479 0.671296
vt 0.934413 0.367980
vt 0.958879 0.303602
vt 0.366755 0.726052
vt 0.366755 0.778303
vt 0.000390 0.775982
vt 0.000390 0.728373
vt 0.909231 0.303602
vt 0.933632 0.304923
vt 0.933632 0.671296
vt 0.909165 0.606918
vt 0.575439 0.622511
vt 0.575439 0.606814
vt 0.581756 0.609296
vt 0.581756 0.620029
vt 0.715658 0.702043
vt 0.696155 0.672917
vt 0.792574 0.606814
vt 0.792574 0.822344
vt 0.785820 0.823009
vn 0.0000 -1.0000 0.0000
vn 0.0000 0.0000 -1.0000
vn -0.9874 0.1563 0.0265
vn -0.8608 -0.5088 0.0145
vn 0.9874 0.1563 0.0265
vn 0.0000 0.9991 0.0435
vn 0.0000 0.9991 -0.0416
vn 0.8608 -0.5088 0.0145
vn 0.0000 0.9995 0.0301
vn 0.0000 0.2666 -0.9638
vn -1.0000 0.0000 0.0000
vn 1.0000 0.0000 0.0000
vn 0.0000 0.9861 0.1663
vn -0.8349 0.5504 0.0000
vn 0.8349 0.5504 0.0000
vn 0.0000 0.1357 0.9907
vn 0.0000 -0.9885 -0.1513
vn -0.2511 -0.9515 0.1778
vn 0.3053 -0.9380 -0.1643
vn 0.0000 1.0000 0.0000
vn 0.0000 -1.0000 0.0063
vn 0.0000 -0.9949 0.1011
vn 0.2511 -0.9515 0.1778
vn 0.0000 0.9942 0.1076
vn 0.0000 -0.9777 0.2100
vn -0.4603 -0.8877 0.0127
vn 0.0000 0.9999 -0.0172
vn 0.4603 -0.8877 0.0127
vn 0.0000 -0.3459 -0.9383
vn -0.3053 -0.9380 -0.1643
usemtl Material
s off
f 1/1/1 5/2/1 7/3/1 3/4/1
f 4/5/2 3/6/2 7/7/2 8/8/2
f 8/9/3 7/10/3 5/11/3 6/12/3
f 8/13/4 6/14/4 9/15/4 10/16/4
f 2/17/5 1/18/5 3/19/5 4/20/5
f 6/21/6 5/22/6 1/23/6 2/24/6
f 12/25/7 10/26/7 14/27/7 16/28/7
f 2/29/8 4/30/8 12/31/8 11/32/8
f 6/33/9 2/34/9 11/35/9 9/36/9
f 4/37/2 8/38/2 10/39/2 12/40/2
f 16/41/10 14/42/10 18/43/10 20/44/10
f 10/45/11 9/46/11 13/47/11 14/48/11
f 11/49/12 12/50/12 16/51/12 15/52/12
f 9/53/13 11/54/13 15/55/13 13/56/13
f 14/57/14 13/58/14 17/59/14 18/60/14
f 15/61/15 16/62/15 20/63/15 19/64/15
f 13/65/16 15/66/16 19/67/16 17/68/16
f 20/69/17 18/70/17 32/71/17 33/72/17
f 21/73/18 17/74/18 24/75/18 26/76/18
f 19/77/19 20/78/19 33/79/19 34/80/19 22/81/19
f 21/82/20 22/83/20 34/84/20 31/85/20
f 24/86/21 23/87/21 27/88/21 28/89/21
f 17/90/22 19/91/22 23/92/22 24/93/22
f 19/94/23 22/95/23 25/96/23 23/97/23
f 22/98/24 21/99/24 26/100/24 25/101/24
f 28/102/25 27/103/25 29/104/25 30/105/25
f 26/106/26 24/107/26 28/108/26 30/109/26
f 25/110/27 26/111/27 30/112/27 29/113/27
f 23/114/28 25/115/28 29/116/28 27/117/28
f 31/118/29 34/119/29 33/120/29 32/121/29
f 18/122/30 17/123/30 21/124/30 31/125/30 32/126/30
