# Blender v2.83.1 OBJ File: 'monitor1.blend'
# www.blender.org
mtllib monitorTextured.mtl
o Stand_Screen.001
v 0.439678 2.037382 -0.129931
v 0.222378 1.337973 -0.129931
v 0.222378 1.337973 0.139886
v 0.439678 2.037382 0.139886
v 0.437715 2.028012 -0.129931
v 0.219451 1.658254 -0.129931
v 0.219451 1.658254 0.139886
v 0.437715 2.028012 0.139886
v 0.437507 2.032301 -0.129931
v 0.255541 1.642865 -0.129931
v 0.255541 1.642865 0.139886
v 0.437507 2.032301 0.139886
v 0.626750 1.919424 -0.129931
v 0.310882 1.634876 -0.129931
v 0.310882 1.634876 0.139886
v 0.626750 1.919424 0.139886
v 0.670479 1.622400 -0.129931
v 0.297014 1.627005 -0.129931
v 0.297014 1.627005 0.139886
v 0.670479 1.622400 0.139886
v 0.651582 0.089763 -0.129931
v 0.278117 0.094368 -0.129931
v 0.278117 0.094368 0.139886
v 0.651582 0.089763 0.139886
v 0.650209 -0.021541 -0.129931
v 0.276745 -0.016937 -0.129931
v 0.276745 -0.016937 0.139886
v 0.650209 -0.021541 0.139886
v 0.021090 0.089763 -1.220218
v -0.352374 0.094368 -1.220218
v 0.019718 -0.021542 -1.220218
v -0.353747 -0.016937 -1.220218
v 0.058964 0.089763 1.150010
v -0.314500 0.094368 1.150010
v 0.057592 -0.021541 1.150010
v -0.315872 -0.016937 1.150010
vt 0.625000 0.500000
vt 0.625000 0.750000
vt 0.625000 0.750000
vt 0.625000 0.500000
vt 0.375000 0.750000
vt 0.375000 0.750000
vt 0.625000 0.750000
vt 0.375000 0.500000
vt 0.375000 0.500000
vt 0.375000 0.750000
vt 0.625000 0.500000
vt 0.625000 0.750000
vt 0.625000 0.500000
vt 0.375000 0.500000
vt 0.625000 0.750000
vt 0.625000 0.500000
vt 0.375000 0.500000
vt 0.375000 0.750000
vt 0.375000 0.750000
vt 0.375000 0.750000
vt 0.625000 0.750000
vt 0.375000 0.500000
vt 0.625000 0.500000
vt 0.625000 0.750000
vt 0.625000 0.500000
vt 0.375000 0.500000
vt 0.375000 0.500000
vt 0.375000 0.750000
vt 0.375000 0.500000
vt 0.625000 0.500000
vt 0.375000 0.750000
vt 0.375000 0.750000
vt 0.375000 0.500000
vt 0.625000 0.500000
vt 0.625000 0.750000
vt 0.625000 0.750000
vn 0.9788 -0.2050 0.0000
vn 0.0000 -0.0000 1.0000
vn -0.0000 0.0000 -1.0000
vn 0.5123 0.8588 0.0000
vn -0.3922 -0.9199 0.0000
vn -0.9988 -0.0486 0.0000
vn 0.9893 0.1457 0.0000
vn -0.1429 -0.9897 0.0000
vn -0.4937 0.8697 0.0000
vn 0.9999 -0.0123 0.0000
vn -0.9999 0.0123 0.0000
vn -0.0123 -0.9999 0.0000
vn -0.0123 -0.9999 0.0071
vn -0.8625 0.0106 -0.5060
vn 0.8656 -0.0107 -0.5006
vn 0.0123 0.9999 -0.0071
vn -0.8656 0.0107 0.5006
vn -0.0123 -0.9999 -0.0072
vn 0.0123 0.9999 0.0072
vn 0.8625 -0.0106 0.5060
usemtl Matériau.001
s off
f 1/1/1 4/2/1 8/3/1 5/4/1
f 8/3/2 7/5/2 11/6/2 12/7/2
f 2/8/2 1/1/2 5/4/2 6/9/2
f 4/2/3 3/10/3 7/5/3 8/3/3
f 9/11/4 12/7/4 16/12/4 13/13/4
f 7/5/5 6/9/5 10/14/5 11/6/5
f 5/4/6 8/3/6 12/7/6 9/11/6
f 6/9/3 5/4/3 9/11/3 10/14/3
f 13/13/7 16/12/7 20/15/7 17/16/7
f 10/14/3 9/11/3 13/13/3 14/17/3
f 12/7/2 11/6/2 15/18/2 16/12/2
f 11/6/8 10/14/8 14/17/8 15/18/8
f 20/15/2 19/19/2 23/20/2 24/21/2
f 14/17/3 13/13/3 17/16/3 18/22/3
f 16/12/2 15/18/2 19/19/2 20/15/2
f 15/18/9 14/17/9 18/22/9 19/19/9
f 21/23/10 24/21/10 28/24/10 25/25/10
f 19/19/11 18/22/11 22/26/11 23/20/11
f 17/16/10 20/15/10 24/21/10 21/23/10
f 18/22/3 17/16/3 21/23/3 22/26/3
f 26/27/12 25/25/12 28/24/12 27/28/12
f 25/25/13 26/27/13 32/29/13 31/30/13
f 23/20/14 27/28/14 36/31/14 34/32/14
f 23/20/11 22/26/11 26/27/11 27/28/11
f 30/33/3 29/34/3 31/30/3 32/29/3
f 21/23/15 25/25/15 31/30/15 29/34/15
f 22/26/16 21/23/16 29/34/16 30/33/16
f 26/27/17 22/26/17 30/33/17 32/29/17
f 33/35/2 34/32/2 36/31/2 35/36/2
f 27/28/18 28/24/18 35/36/18 36/31/18
f 24/21/19 23/20/19 34/32/19 33/35/19
f 28/24/20 24/21/20 33/35/20 35/36/20
o Screen_MonitorStand.002
v 0.043092 0.674945 1.890173
v 0.229449 2.797297 1.890173
v 0.043092 0.674945 -1.963773
v 0.229449 2.797297 -1.963773
v 0.132109 0.831074 1.671020
v 0.317946 2.566976 1.671020
v 0.132109 0.831074 -1.637469
v 0.317946 2.566976 -1.637469
v -0.005982 0.663027 -1.988290
v -0.005982 0.663027 1.914690
v 0.179388 2.817920 1.914690
v 0.179388 2.817920 -1.988290
v 0.439678 2.037382 -0.129931
v 0.222378 1.337973 -0.129931
v 0.222378 1.337973 0.139886
v 0.439678 2.037382 0.139886
v 0.219451 1.658254 -0.129931
v 0.219451 1.658254 0.139886
v -0.018623 0.707429 -1.934223
v -0.018623 0.707429 1.860623
v 0.166746 2.781793 1.860623
v 0.166746 2.781793 -1.934223
v 0.008087 0.705042 -1.934223
v 0.008087 0.705042 1.860623
v 0.193457 2.779406 1.860623
v 0.193457 2.779406 -1.934223
vt 0.961208 0.686642
vt 0.961205 0.004340
vt 0.971064 0.000000
vt 0.971064 0.690981
vt 0.929512 0.000000
vt 0.929512 0.373413
vt 0.868457 0.334494
vt 0.870119 0.028526
vt 0.638844 0.000000
vt 0.638844 0.305974
vt 0.367711 0.215965
vt 0.365018 0.087470
vt 0.870822 0.718295
vt 0.868457 0.412331
vt 0.912000 0.373413
vt 0.912000 0.746825
vt 0.961205 0.682261
vt 0.929512 0.624495
vt 0.929513 0.038795
vt 0.961205 0.000000
vt 0.824805 0.057765
vt 0.868457 0.000000
vt 0.868457 0.682257
vt 0.824805 0.643461
vt 0.764996 0.585694
vt 0.764996 0.964763
vt 0.754967 0.957190
vt 0.755267 0.592186
vt 0.971065 0.686610
vt 0.971064 0.004340
vt 0.980237 0.000000
vt 0.980237 0.690950
vt 0.734559 0.961891
vt 0.735180 0.588484
vt 0.744938 0.585694
vt 0.744938 0.964771
vt 0.912621 0.749699
vt 0.912000 0.376292
vt 0.922379 0.373413
vt 0.922379 0.752489
vt 0.824805 0.000000
vt 0.824805 0.585694
vt 0.734560 0.318821
vt 0.734559 0.271053
vt 0.638844 0.585696
vt 0.734559 0.271054
vt 0.734559 0.318819
vt 0.634710 0.305974
vt 0.634710 0.611947
vt 0.365018 0.524476
vt 0.367753 0.395982
vt 0.421195 0.611947
vt 0.421195 0.659712
vt 0.365018 0.659712
vt 0.365018 0.611947
vt 0.764996 0.950700
vt 0.764996 0.585694
vt 0.769891 0.585709
vt 0.769891 0.950715
vt 0.754967 0.585694
vt 0.754967 0.964773
vt 0.745239 0.958282
vt 0.744938 0.593268
vt 0.988383 0.690938
vt 0.988383 0.000000
vt 0.995104 0.009571
vt 0.995104 0.681367
vt 0.988383 0.000000
vt 0.988383 0.690879
vt 0.980240 0.681308
vt 0.980237 0.009574
vt 0.000000 0.000000
vt 0.365018 0.000000
vt 0.365018 0.671795
vt 0.000000 0.671795
vt 0.671879 0.676691
vt 0.000000 0.676691
vt 0.000000 0.671795
vt 0.671879 0.671797
vt 1.000000 0.000000
vt 1.000000 0.671878
vt 0.995104 0.671878
vt 0.995106 0.000000
vt 0.922379 0.738438
vt 0.922379 0.373427
vt 0.927275 0.373413
vt 0.927275 0.738424
vn 0.3809 0.9246 0.0000
vn 0.9581 -0.0924 -0.2711
vn 0.9842 -0.1629 0.0693
vn 0.9179 -0.0885 0.3867
vn 0.8687 -0.4953 0.0000
vn 0.9335 0.3587 0.0000
vn -0.9688 0.0849 -0.2330
vn 0.2360 -0.9718 0.0000
vn 0.4403 -0.0383 -0.8970
vn 0.4403 -0.0383 0.8970
vn 0.9845 -0.1753 0.0000
vn 0.9746 0.2240 0.0000
vn 0.9841 -0.1629 -0.0704
vn 1.0000 0.0091 0.0000
vn 0.0000 0.0000 -1.0000
vn -0.9688 0.0849 0.2330
vn -0.9439 0.3303 0.0000
vn -0.9618 -0.2738 0.0000
vn -0.9960 0.0890 0.0000
vn -0.0890 -0.9960 0.0000
vn 0.0890 0.9960 0.0000
vn 0.0000 0.0000 1.0000
usemtl Matériau
s off
f 38/37/21 40/38/21 48/39/21 47/40/21
f 39/41/22 40/42/22 44/43/22 43/44/22
f 42/45/23 41/46/23 51/47/23 52/48/23
f 41/49/24 42/50/24 38/51/24 37/52/24
f 39/53/25 43/54/25 41/55/25 37/56/25
f 44/57/26 40/58/26 38/59/26 42/60/26
f 48/61/27 45/62/27 55/63/27 58/64/27
f 39/65/28 37/66/28 46/67/28 45/68/28
f 40/69/29 39/70/29 45/71/29 48/72/29
f 37/73/30 38/74/30 47/75/30 46/76/30
f 41/77/31 43/78/31 50/79/31 51/80/31
f 44/81/32 42/45/32 52/82/32 49/83/32
f 43/84/33 44/85/33 49/86/33 50/87/33
f 51/88/34 50/89/34 53/90/34 54/91/34
f 56/92/35 57/93/35 61/94/35 60/95/35
f 46/96/36 47/97/36 57/98/36 56/99/36
f 47/100/37 48/101/37 58/102/37 57/103/37
f 45/104/38 46/105/38 56/106/38 55/107/38
f 60/108/39 61/109/39 62/110/39 59/111/39
f 57/112/40 58/113/40 62/114/40 61/115/40
f 55/116/41 56/117/41 60/118/41 59/119/41
f 58/120/42 55/121/42 59/122/42 62/123/42
